HIERARCHY
ROOT Hips
{
	OFFSET 0.000000 0.000000 0.000000
	CHANNELS 6 Xposition Yposition Zposition Xrotation Yrotation Zrotation
	JOINT LeftUpLeg_virtual
	{
		OFFSET 0.000000 0.000000 0.000000
		CHANNELS 3 Xrotation Yrotation Zrotation
		JOINT LeftUpLeg
		{
			OFFSET 11.394100 -6.187798 -0.413800
			CHANNELS 3 Xrotation Yrotation Zrotation
			JOINT LeftLeg
			{
				OFFSET 0.430247 -32.302673 3.732800
				CHANNELS 3 Xrotation Yrotation Zrotation
				JOINT LeftFoot
				{
					OFFSET -0.430247 -48.264931 -6.423300
					CHANNELS 3 Xrotation Yrotation Zrotation
					JOINT LeftToeBase
					{
						OFFSET 4.230900 -16.068199 23.438400
						CHANNELS 3 Xrotation Yrotation Zrotation
						JOINT LeftToe_End
						{
							OFFSET 4.510700 0.695400 19.974600
							CHANNELS 3 Xrotation Yrotation Zrotation
							End Site
							{
								OFFSET 0 0 0
							}
						}
					}
				}
			}
		}
	}
	JOINT RightUpLeg_virtual
	{
		OFFSET 0.000000 0.000000 0.000000
		CHANNELS 3 Xrotation Yrotation Zrotation
		JOINT RightUpLeg
		{
			OFFSET -11.333700 -6.187798 -0.413800
			CHANNELS 3 Xrotation Yrotation Zrotation
			JOINT RightLeg
			{
				OFFSET -0.430392 -32.302628 3.733000
				CHANNELS 3 Xrotation Yrotation Zrotation
				JOINT RightFoot
				{
					OFFSET 0.430392 -48.264973 -6.423500
					CHANNELS 3 Xrotation Yrotation Zrotation
					JOINT RightToeBase
					{
						OFFSET -4.230900 -16.068199 23.438400
						CHANNELS 3 Xrotation Yrotation Zrotation
						JOINT RightToe_End
						{
							OFFSET -4.510700 0.695400 19.974600
							CHANNELS 3 Xrotation Yrotation Zrotation
							End Site
							{
								OFFSET 0 0 0
							}
						}
					}
				}
			}
		}
	}
	JOINT Spine_virtual
	{
		OFFSET 0.000000 0.000000 0.000000
		CHANNELS 3 Xrotation Yrotation Zrotation
		JOINT Spine
		{
			OFFSET -0.002400 12.777504 0.315300
			CHANNELS 3 Xrotation Yrotation Zrotation
			JOINT Spine1
			{
				OFFSET -0.002067 5.816869 0.032633
				CHANNELS 3 Xrotation Yrotation Zrotation
				JOINT Spine1_split
				{
					OFFSET -0.002067 5.816869 0.032633
					CHANNELS 3 Xrotation Yrotation Zrotation
					JOINT Spine2
					{
						OFFSET -0.002067 5.816869 0.032633
						CHANNELS 3 Xrotation Yrotation Zrotation
						JOINT Neck_virtual
						{
							OFFSET 0.000000 0.000000 0.000000
							CHANNELS 3 Xrotation Yrotation Zrotation
							JOINT Neck
							{
								OFFSET -0.003700 21.199493 -0.826900
								CHANNELS 3 Xrotation Yrotation Zrotation
								JOINT Head
								{
									OFFSET 0.000000 20.442200 4.834800
									CHANNELS 3 Xrotation Yrotation Zrotation
									JOINT HeadTop_End
									{
										OFFSET 0.000000 34.668396 4.968400
										CHANNELS 3 Xrotation Yrotation Zrotation
										End Site
										{
											OFFSET 0 0 0
										}
									}
								}
							}
						}
						JOINT LeftShoulder_virtual
						{
							OFFSET 0.000000 0.000000 0.000000
							CHANNELS 3 Xrotation Yrotation Zrotation
							JOINT LeftShoulder
							{
								OFFSET 3.288150 8.794197 -1.372250
								CHANNELS 3 Xrotation Yrotation Zrotation
								JOINT LeftShoulder_split
								{
									OFFSET 3.288150 8.794197 -1.372250
									CHANNELS 3 Xrotation Yrotation Zrotation
									JOINT LeftArm
									{
										OFFSET 11.953299 -2.279007 -0.146200
										CHANNELS 3 Xrotation Yrotation Zrotation
										JOINT LeftForeArm
										{
											OFFSET 18.448900 0.000000 0.000000
											CHANNELS 3 Xrotation Yrotation Zrotation
											JOINT LeftHand
											{
												OFFSET 29.527798 0.000000 0.000000
												CHANNELS 3 Xrotation Yrotation Zrotation
												End Site
												{
													OFFSET 0 0 0
												}
											}
										}
									}
								}
							}
						}
						JOINT RightShoulder_virtual
						{
							OFFSET 0.000000 0.000000 0.000000
							CHANNELS 3 Xrotation Yrotation Zrotation
							JOINT RightShoulder
							{
								OFFSET -3.249400 8.794197 -1.372250
								CHANNELS 3 Xrotation Yrotation Zrotation
								JOINT RightShoulder_split
								{
									OFFSET -3.249400 8.794197 -1.372250
									CHANNELS 3 Xrotation Yrotation Zrotation
									JOINT RightArm
									{
										OFFSET -11.953299 -2.279007 -0.146200
										CHANNELS 3 Xrotation Yrotation Zrotation
										JOINT RightForeArm
										{
											OFFSET -18.448900 0.000000 0.000000
											CHANNELS 3 Xrotation Yrotation Zrotation
											JOINT RightHand
											{
												OFFSET -29.527802 0.000000 0.000000
												CHANNELS 3 Xrotation Yrotation Zrotation
												End Site
												{
													OFFSET 0 0 0
												}
											}
										}
									}
								}
							}
						}
					}
				}
			}
		}
	}
}
MOTION
Frames: 11
Frame Time: 0.03333333
103.258965 85.092278 201.977936 0.000000 0.000000 0.000000 -114.128800 -60.433049 -179.015652 -64.082515 -1.787745 32.134124 89.621009 -2.133530 -6.120219 20.041416 -10.241993 0.597842 -2.806144 0.672881 -4.966015 0.000000 0.000000 0.000000 -93.022102 -67.424117 -163.595161 -62.810078 -2.753642 -44.030405 47.772980 6.496105 -7.152366 15.621992 -0.802786 11.858959 7.777297 0.631221 -5.326128 0.000000 0.000000 0.000000 -113.877784 -60.520039 -176.913743 15.252786 4.447070 3.157840 -2.337753 1.714388 6.724318 0.281377 1.588147 1.666274 0.000000 0.000000 0.000000 0.663166 1.692303 5.571856 19.620985 5.531166 11.287549 14.623467 38.578008 -20.128586 0.000000 0.000000 0.000000 0.209843 1.541286 6.266337 1.904855 -10.528743 10.501989 3.579649 1.815210 1.564720 1.487697 12.586281 -2.293931 4.274247 -35.532273 -0.101776 0.000000 0.000000 0.000000 -1.401675 2.134016 6.170666 2.013844 4.614046 17.528647 -0.572346 -1.158516 -0.345476 -21.600659 22.312773 16.511163 2.450396 21.756666 -2.276842 0.000000 0.000000 0.000000 
109.914879 78.484589 212.257339 0.000000 0.000000 0.000000 -114.141566 -56.965666 -178.939222 -64.080828 -0.343222 29.779615 89.712622 0.546455 -5.381345 23.075511 -6.836677 1.405685 -0.907405 0.266034 -3.519846 0.000000 0.000000 0.000000 -97.011752 -62.876317 -167.880968 -60.885324 -3.589847 -41.355750 40.588734 4.983538 -6.429679 21.394425 -3.151046 9.346322 7.153313 0.117979 -1.282903 0.000000 0.000000 0.000000 -114.735485 -56.734789 -178.894675 16.057307 4.459005 2.573797 -1.578244 2.605841 6.021739 0.209042 1.324310 1.983496 0.000000 0.000000 0.000000 0.647145 2.571493 4.739220 19.767355 5.607118 9.118217 14.367713 35.655247 -19.190209 0.000000 0.000000 0.000000 0.423907 2.348288 5.236812 2.209040 -9.963519 9.490229 1.877740 2.588707 1.472961 -1.244193 17.678509 -1.211449 4.493330 -36.340704 -0.008776 0.000000 0.000000 0.000000 -1.270182 3.124532 5.364630 1.686471 6.783448 19.245386 -0.933519 -3.039288 -0.341537 -23.203751 22.384755 19.180927 2.981595 28.745237 -2.071121 0.000000 0.000000 0.000000 
116.744522 69.304657 223.440536 0.000000 0.000000 0.000000 -115.066257 -50.564932 -179.039339 -63.393841 1.782180 27.936645 87.948808 3.505290 -3.986980 23.822918 -2.698893 -0.407272 0.426810 0.001496 -1.127880 0.000000 0.000000 0.000000 -103.010181 -55.913933 -173.822440 -61.517895 0.339847 -36.159049 34.937965 3.711570 -6.533434 27.177961 -3.525188 9.191179 6.429397 -0.610063 2.159893 0.000000 0.000000 0.000000 -114.819250 -50.946060 -179.366846 17.072533 3.975198 1.877791 -0.670000 3.376211 5.776048 0.699138 0.932460 2.016865 0.000000 0.000000 0.000000 0.605318 3.440958 4.471490 19.080004 5.300083 7.257108 13.603689 32.403985 -17.871583 0.000000 0.000000 0.000000 0.677924 3.151731 4.871407 2.397845 -8.154775 7.818131 1.127522 3.541703 0.399237 -4.550045 23.304978 -0.564107 3.890469 -43.324791 -0.304146 0.000000 0.000000 0.000000 -1.177558 4.033916 5.189742 1.419216 8.131604 20.425589 -1.098983 -3.770879 0.126131 -25.890662 20.879028 22.763526 2.849430 37.752778 -1.325146 0.000000 0.000000 0.000000 
123.650536 57.744087 234.910690 0.000000 0.000000 0.000000 -116.715666 -41.237568 -179.444806 -63.032155 4.693299 27.651859 84.298796 5.385884 -1.927849 22.967612 0.810594 -4.367042 0.492776 -0.240112 2.178685 0.000000 0.000000 0.000000 -108.197880 -46.562803 -179.140030 -66.526937 7.341493 -28.197219 32.479749 3.465150 -7.304788 31.838292 -1.082240 11.666856 5.289624 -1.312952 3.299984 0.000000 0.000000 0.000000 -114.570331 -43.258767 -179.330291 18.156653 2.813244 1.119884 0.307058 3.822734 6.065208 0.997916 -0.648047 1.877667 0.000000 0.000000 0.000000 0.668611 4.115967 4.811761 18.126330 4.619760 5.974420 12.379382 28.720481 -16.258968 0.000000 0.000000 0.000000 0.982110 3.832356 5.246675 2.627987 -6.047569 5.383644 1.724781 4.023364 -1.105655 -6.741436 27.792178 -1.101137 2.891560 -54.872756 -0.953921 0.000000 0.000000 0.000000 -1.038051 4.728713 5.741889 1.341479 8.252992 21.038077 -1.216647 -3.227145 0.549752 -28.567466 18.245853 26.962097 1.634317 47.487645 0.210569 0.000000 0.000000 0.000000 
130.578934 45.507954 246.096695 0.000000 0.000000 0.000000 -118.206204 -30.378557 179.952016 -64.977085 7.957832 30.100121 80.245714 5.596145 -0.238523 22.018517 3.591598 -8.696291 0.278134 -0.314458 5.355117 0.000000 0.000000 0.000000 -111.350006 -35.552142 177.371871 -76.928885 13.536076 -17.173807 34.964739 3.743291 -8.273581 34.247279 3.000828 15.397762 3.726509 -1.810571 2.024518 0.000000 0.000000 0.000000 -114.172226 -33.942147 -179.055021 19.098694 1.143281 0.480209 1.225080 3.940477 6.683445 1.153805 -2.188398 1.760678 0.000000 0.000000 0.000000 0.861083 4.497007 5.489141 17.673934 3.471404 5.536361 11.484101 24.642341 -14.766002 0.000000 0.000000 0.000000 1.378800 4.215178 6.029608 3.044691 -4.322088 2.173711 3.453367 3.382943 -2.241269 -7.055384 28.505924 -2.910568 2.946861 -65.727976 -1.039426 0.000000 0.000000 0.000000 -0.641668 5.134195 6.647754 1.453525 6.821496 21.483575 -1.311215 -2.124632 0.739050 -30.068433 15.577290 31.188997 -0.825181 56.292879 2.533331 0.000000 0.000000 0.000000 
137.506531 34.513062 256.806824 0.000000 0.000000 0.000000 -118.712718 -19.575908 179.069515 -69.011972 10.442703 35.699807 77.769292 4.764098 -0.299422 21.881785 6.044264 -10.977612 1.403079 -0.062714 7.029721 0.000000 0.000000 0.000000 -111.849422 -24.781793 175.185323 -89.529915 15.018380 -4.749393 42.075577 3.541193 -8.982396 33.470536 6.825011 18.250638 2.904836 -1.972016 -0.606881 0.000000 0.000000 0.000000 -113.428856 -24.328879 -178.549109 19.528201 -0.799333 0.060000 1.968108 3.792532 7.202205 1.071212 -4.104481 1.355348 0.000000 0.000000 0.000000 1.181281 4.561524 6.055233 18.085233 2.275618 6.005797 11.462023 20.341463 -13.538030 0.000000 0.000000 0.000000 1.905545 4.319909 6.620760 3.660686 -3.864854 -1.447219 5.056476 2.067340 -2.483457 -4.832491 25.166715 -5.700598 5.238198 -71.548021 0.863983 0.000000 0.000000 0.000000 0.032373 5.210748 7.382969 1.681279 3.764020 22.117788 -1.071251 -0.334832 0.300617 -29.992672 13.829850 34.743321 -4.122772 63.046382 5.290408 0.000000 0.000000 0.000000 
144.213089 26.610611 266.135468 0.000000 0.000000 0.000000 -118.009727 -10.901334 177.836215 -73.455597 11.128965 43.089362 77.515482 3.952702 -2.638246 22.290860 8.605210 -9.247884 4.128597 0.543251 6.460123 0.000000 0.000000 0.000000 -110.143453 -15.677953 174.000340 -99.301327 11.319248 5.226676 52.882046 1.907886 -8.563035 30.885333 8.544579 17.841001 2.684300 -1.814280 -2.405821 0.000000 0.000000 0.000000 -112.786053 -15.623928 -178.669703 18.991372 -2.558135 -0.010768 2.386232 3.569538 7.166907 0.614490 -6.743208 0.749686 0.000000 0.000000 0.000000 1.605741 4.401627 6.050570 19.237499 1.003839 7.043295 12.415469 15.953635 -12.558981 0.000000 0.000000 0.000000 2.399421 4.182563 6.510483 4.366780 -4.825390 -4.585891 5.927159 0.555979 -1.985190 -0.747436 18.151822 -7.892752 8.182142 -72.454141 3.593379 0.000000 0.000000 0.000000 0.871097 5.134250 7.464429 2.153874 -0.772626 23.003761 -1.062389 0.999766 -0.678323 -28.861924 13.387609 36.915974 -6.927873 67.013458 7.187914 0.000000 0.000000 0.000000 
150.254120 23.128967 273.828094 0.000000 0.000000 0.000000 -116.231843 -5.065905 176.366481 -76.230888 9.466685 49.897616 79.343903 2.893938 -6.211386 23.993172 10.134463 -4.620178 6.382513 1.213110 4.324583 0.000000 0.000000 0.000000 -107.336491 -8.778650 173.305081 -104.149614 5.491956 11.703060 64.531033 -0.715386 -6.506245 28.066048 8.292452 13.778559 1.902291 -1.493466 -1.968970 0.000000 0.000000 0.000000 -112.225862 -8.762051 -178.828532 17.353405 -3.771694 0.249923 2.403673 3.427247 6.269242 -0.151718 -9.112368 0.504187 0.000000 0.000000 0.000000 2.062965 4.144910 5.239853 20.503419 -0.191456 8.186650 14.223165 11.787610 -11.821592 0.000000 0.000000 0.000000 2.752395 3.914535 5.392431 5.045965 -6.473777 -6.364934 6.523381 -0.087062 -1.699880 4.630270 9.888677 -7.995513 10.427364 -72.401125 5.922684 0.000000 0.000000 0.000000 1.716331 4.927757 6.545080 2.874179 -6.480732 24.086380 -0.936191 2.051745 -1.573511 -27.783017 13.971432 37.022822 -8.338340 69.110579 7.451439 0.000000 0.000000 0.000000 
155.218933 23.200207 279.211487 0.000000 0.000000 0.000000 -114.112496 -1.656367 175.139410 -75.385269 6.175616 54.243651 81.486766 0.654909 -9.231497 27.250025 9.160981 0.873403 6.487472 1.651048 2.043106 0.000000 0.000000 0.000000 -104.392659 -3.803945 172.496974 -104.925004 1.180543 15.770787 73.598840 -2.351362 -3.958590 25.787789 8.315813 7.969726 1.432850 -1.131685 0.211240 0.000000 0.000000 0.000000 -111.957353 -3.970422 -179.421666 14.612216 -4.198979 0.655739 2.019030 3.409052 4.552761 -1.006646 -11.193323 0.305825 0.000000 0.000000 0.000000 2.457110 3.912755 3.670847 20.618634 -1.268147 8.723786 15.666127 8.193158 -10.995594 0.000000 0.000000 0.000000 2.862287 3.766746 3.477376 5.846532 -8.449802 -5.753156 6.817544 -0.011805 -1.922541 11.780937 4.013114 -6.224316 12.644792 -76.090718 8.705740 0.000000 0.000000 0.000000 2.348382 4.674138 4.721245 3.886688 -12.815670 24.796686 -0.933067 2.951957 -1.628175 -27.994005 14.085044 34.940625 -9.490757 71.557713 7.576106 0.000000 0.000000 0.000000 
158.706406 25.192558 282.500885 0.000000 0.000000 0.000000 -112.823810 0.020738 174.397529 -71.677562 1.865171 55.546264 81.932033 -2.741065 -10.699260 32.119125 5.261523 5.629236 4.629090 1.884500 0.517887 0.000000 0.000000 0.000000 -102.744651 -0.203608 171.635359 -103.419644 0.452086 18.063583 79.069931 -2.014242 -2.286053 25.198602 9.992225 3.723738 1.017687 -0.709245 2.783018 0.000000 0.000000 0.000000 -112.355519 -1.080244 179.736988 11.362424 -3.743029 1.070433 1.334422 3.585484 2.357472 -1.354004 -11.724324 0.894062 0.000000 0.000000 0.000000 2.757761 3.815782 1.665435 18.796144 -2.514455 8.313925 15.736365 5.143389 -10.074719 0.000000 0.000000 0.000000 2.666260 3.869105 1.249276 7.012436 -10.030351 -2.408202 7.700826 0.607653 -2.789632 20.269184 1.282332 -4.022629 24.444866 -85.154632 21.348914 0.000000 0.000000 0.000000 2.728680 4.528780 2.337173 5.144748 -19.320042 24.485489 -1.181031 3.499289 -0.698613 -31.198436 12.116567 30.829476 -13.281152 76.407284 10.644668 0.000000 0.000000 0.000000 
160.723007 27.396412 284.078918 0.000000 0.000000 0.000000 -112.886245 1.199230 174.107983 -65.942464 -3.227224 54.496389 79.706901 -6.546812 -10.469304 37.617325 -0.689671 9.067716 2.640813 1.910970 -0.061806 0.000000 0.000000 0.000000 -103.032215 2.699374 170.516875 -99.829177 3.936110 19.154886 80.009116 0.076010 -2.468735 25.249323 13.780900 4.321438 -0.281712 -0.452571 3.938207 0.000000 0.000000 0.000000 -113.284001 0.509940 178.902134 8.401869 -2.472464 1.275407 0.569984 3.905196 0.185756 -1.286361 -10.113032 2.308958 0.000000 0.000000 0.000000 2.872778 3.971863 -0.291771 14.454012 -3.707545 6.827193 13.579629 2.711674 -9.041338 0.000000 0.000000 0.000000 2.421413 4.343669 -0.735899 8.689328 -10.903927 3.266215 8.782758 1.397302 -4.538593 28.699659 -0.200125 -2.704738 175.431305 -82.107924 173.195730 0.000000 0.000000 0.000000 2.812655 4.530371 -0.077871 6.396721 -25.409919 22.645682 -1.115637 4.178040 0.924426 -38.635303 7.283213 25.428393 -36.776727 84.217954 33.948724 0.000000 0.000000 0.000000 
